<?xml version="1.0" encoding="UTF-8"?><svg id="Layer_2" xmlns="http://www.w3.org/2000/svg" viewBox="0 0 175.97 98.5"><g id="Layer_3"><g><rect x="8.27" width="1.77" height="90.18"/><rect x="11.8" width="1.77" height="90.18"/><rect x="17.1" width="1.77" height="83.89"/><rect x="22.39" width="3.53" height="83.89"/><rect x="27.69" width="7.06" height="83.89"/><rect x="36.51" width="1.77" height="83.89"/><rect x="41.81" width="5.3" height="83.89"/><rect x="48.87" width="1.77" height="83.89"/><rect x="52.4" width="3.53" height="83.89"/><rect x="59.06" width="3.43" height="83.89"/><rect x="70.05" width="1.77" height="83.89"/><rect x="73.59" width="1.77" height="83.89"/><rect x="78.96" width="4" height="83.89"/><rect x="85.94" width="1.77" height="83.89"/><rect x="89.47" width="1.77" height="90.18"/><rect x="93" width="1.77" height="90.18"/><rect x="96.53" width="1.77" height="83.89"/><rect x="101.83" width="1.77" height="83.89"/><rect x="108.89" width="5.3" height="83.89"/><rect x="115.95" width="1.77" height="83.89"/><rect x="121.25" width="3.53" height="83.89"/><rect x="128.31" width="3.53" height="83.89"/><rect x="133.6" width="3.53" height="83.89"/><rect x="138.9" width="3.53" height="83.89"/><rect x="145.96" width="6.4" height="83.89"/><rect x="154.79" width="1.77" height="83.89"/><rect x="158.32" width="3.53" height="83.89"/><rect x="165.38" width="3.53" height="83.89"/><rect x="170.67" width="1.77" height="90.18"/><rect x="174.2" width="1.77" height="90.18"/><path d="M3.53,96.34c.07-1.08,.01,.95,.03-8.9-.54,.54-2.04,2.02-2.72,2.02-.46,0-.85-.34-.85-.83,0-.67,.85-1.07,2.51-2.58,.55-.5,.9-.92,1.63-.92s1.14,.36,1.14,1.05c0,.09-.05,9.24,0,9.98,.06,.9,.09,2.22-.82,2.22-.63,0-1-1.09-.93-2.05Z"/><g><path d="M17.71,96.51h4.11c.48,0,1.82-.28,1.82,.85,0,1.19-1.5,.85-2.14,.85h-3.68c-1.15,0-1.85,.13-1.85-1.29,0-5.39,5.91-5.31,5.91-8.2,0-1-.71-1.88-2.34-1.88-1.49,0-2.48,.85-2.99,.85s-.73-.51-.73-.85c0-1.89,7.76-3.32,7.76,2.02,0,3.74-5.86,4.17-5.86,7.66Z"/><path d="M31.79,91.79c-.33-.08-1.03,.06-1.39-.31-.42-.38-.28-.99,.12-1.39l2.89-3.02c-4.36,.02-5.54,.32-5.54-.87s1.21-.88,6.2-.85c.68,0,1.7-.15,1.68,1.1,0,1.27-1.8,2.18-2.96,3.82,4.57,.39,5.33,9.37-3.38,7.95-2.23-.38-1.76-2-.8-2,.54,0,1.31,.51,2.6,.51,2.04,0,4.49-4.41,.58-4.94Z"/><path d="M45.12,95.43h-3.5c-.48,0-1.04,.07-1.38-.34-.7-.94,.3-2.38,1.49-4.99l1.19-2.51,.27-.71c.15-.26,.5-1.68,1.39-1.68,.46,0,.85,.34,.85,.83,0,.63-.62,1.73-1,2.36-.04,.09-2.29,4.92-2.55,5.35h3.23c0-1.06-.39-2.78,.85-2.78s.85,1.76,.85,2.78c.7,0,1.72-.17,1.72,.83s-1.14,.87-1.72,.87c0,1.02,.44,2.94-.85,2.94-.63,0-.93-.48-.93-1.41,0-.47,.09-1.34,.09-1.53Z"/><path d="M55.04,87.07l-.15,2.45c6.15,0,5.99,5.06,4.08,7.18-1.08,1.17-3.45,1.8-4.91,1.8-1.56,0-1.47-1.33-.76-1.66,.55-.25,1.47,.03,2.87-.41,3.22-1.01,3.11-5.1-.8-5.21-1.13,0-2.26,.42-2.26-1.09,0-.53,.14-1.06,.14-1.46,.03-1.48,.1-2.41,.22-2.77,.22-.69,.59-.56,5.4-.56,.8,0,1.19,.29,1.19,.87,0,1.18-1.16,.88-5.01,.87Z"/><path d="M70.8,86.58c-.65,.92,.12-.43-2.97,3.46,6.55-1.25,7.26,8.41,1.05,8.41-4.73,0-6.69-5.69,.32-12.7,.36-.37,.66-.56,.93-.56,.71,0,1.07,.75,.66,1.39Zm-3.69,5.6c-1.42,1.24-1.15,4.59,1.73,4.59,1.56,0,2.62-.93,2.62-2.63,0-2.7-3.08-3.01-4.35-1.95Z"/><path d="M78.99,97.29c0-6.22,3.34-7.43,4.52-10.24h-4.53c-.8,0-2.04,.27-2.04-.85,0-1.19,1.65-.85,2.33-.85h4.16c.89,0,2.02-.18,2.02,1.07,0,1.89-2.73,4.62-3.29,5.5-2.35,3.65-.57,6.44-2.28,6.44-.46,0-.88-.27-.88-1.07Z"/></g><g><path d="M98.21,91.03c-2.69-1.2-2.77-5.89,1.89-5.89,1.79,0,3.58,.92,3.58,2.87,.02,1.85-1.19,2.55-1.83,3.07,.58,.32,1.12,.83,1.63,1.51,1.86,2.4,.28,5.88-3.43,5.88-4.09,0-6.3-4.4-1.83-7.44Zm2.78,1.5c-.87-.59-.97-.75-1.73-.2-3.04,2.19-1.81,4.45,.8,4.45s3.6-2.35,.93-4.25Zm-2.14-3.07c.54,.39,.93,.58,1.15,.58,.72,0,1.99-.92,1.99-1.9,0-.76-.82-1.31-1.92-1.31-2.15,0-2.68,1.58-1.22,2.63Z"/><path d="M110.35,96.99c.48-.69,1-.58,2.97-3.46-.95,0-2.32,.17-3.5-.59-2.16-1.38-2.37-4.65-.58-6.52,2.78-2.95,9.16-.7,6.83,5.49-.84,2.23-3.87,6.47-5.06,6.47-.79,0-1.04-.89-.66-1.38Zm2.77-5.16c2.52-.3,2.4-4.53-.8-5.01-2.68-.41-4.08,5.61,.8,5.01Zm.24,1.66l-.03,.03,.03-.03Z"/><path d="M159.89,96.99c.48-.69,1-.58,2.97-3.46-.95,0-2.32,.17-3.5-.59-2.17-1.38-2.37-4.65-.58-6.52,2.78-2.95,9.16-.7,6.83,5.49-.84,2.23-3.87,6.47-5.06,6.47-.79,0-1.04-.89-.66-1.38Zm2.77-5.16c2.52-.3,2.4-4.53-.8-5.01-2.68-.41-4.08,5.61,.8,5.01Zm.24,1.66l-.03,.03,.03-.03Z"/><path d="M124.38,96.34c.07-1.13,.01,.99,.03-8.9-.54,.54-2.04,2.02-2.72,2.02-.46,0-.85-.34-.85-.83,0-.67,.86-1.07,2.51-2.58,.55-.5,.9-.92,1.63-.92s1.14,.36,1.14,1.05c0,12.38,.03,10.4,.03,10.61,0,1.07-.29,1.6-.85,1.6-.96,0-1-1.09-.93-2.05Z"/><path d="M137.69,92.79c-1.43,.98-2.9,1.95-2.9,3.72h4.11c.41,0,1.82-.29,1.82,.85s-1.5,.85-2.14,.85c-.15,0-4.2,.02-4.31,.02-.9,0-1.22-.34-1.22-1.31,0-4.04,3.26-4.96,5.04-6.52,1.55-1.37,1.01-3.57-1.48-3.57-1.49,0-2.48,.85-2.99,.85s-.73-.51-.73-.85c0-1.92,7.76-3.29,7.76,2.02,0,.59-1.44,2.9-2.95,3.94Z"/><path d="M151.52,94.19c0-1.64-1.39-2.3-3.09-2.43-.62-.02-1.21-.2-1.21-.83,0-.73,.42-.76,3.26-3.86h-3.87c-.78,0-1.66,.1-1.66-.87,0-1.14,1.48-.85,2.22-.85h3.97c.68,0,1.7-.15,1.68,1.1,0,1.27-1.79,2.16-2.95,3.82,4.56,.39,5.33,9.37-3.38,7.95-2.24-.38-1.75-2-.8-2,.59,0,1.23,.51,2.6,.51,2.04,0,3.23-1.12,3.23-2.55Z"/></g></g></g></svg>