<?xml version="1.0" encoding="UTF-8"?><svg id="Layer_2" xmlns="http://www.w3.org/2000/svg" viewBox="0 0 367.36 120"><defs><style>.cls-1{fill:#fff;}.cls-2,.cls-3,.cls-4,.cls-5,.cls-6{stroke-miterlimit:10;}.cls-2,.cls-4,.cls-7{fill-rule:evenodd;}.cls-2,.cls-5{fill:none;stroke:#fff;}.cls-3{fill:#f15a24;stroke:#f15a24;stroke-width:3px;}.cls-4,.cls-7,.cls-6{fill:#ff6b00;}.cls-4,.cls-6{stroke:#ff6b00;}.cls-5{stroke-width:.5px;}</style></defs><g id="Layer_3"><polyline class="cls-4" points="366.73 116.93 3.3 116.93 .5 116.93 .5 119.5 123.81 119.5 132.68 116.93"/><polyline class="cls-7" points="339.13 105.67 .5 105.67 .5 12.22 367.36 12.22 367.36 76.56"/><line class="cls-6" x1=".5" y1="1.5" x2="366.73" y2="1.5"/><line class="cls-3" x1="326.11" y1="1.5" x2="366.73" y2="1.5"/><g><path class="cls-1" d="M79.04,31.91h6.23l8.57,24.36h.09l8.61-24.36h6.23l-12.42,32.01h-4.85l-12.46-32.01Z"/><path class="cls-1" d="M112.09,31.91h5.93V63.92h-5.93V31.91Z"/><path class="cls-1" d="M123.73,31.91h17.22v5.54h-11.29v7.83h10.82v5.54h-10.82v7.57h11.29v5.54h-17.22V31.91Z"/><path class="cls-1" d="M143.89,31.91h6.06l5.54,22.37h.09l5.49-22.37h4.33l5.36,22.37h.09l5.58-22.37h6.06l-9.3,32.01h-4.72l-5.19-21.16h-.09l-5.28,21.16h-4.67l-9.34-32.01Z"/><path class="cls-1" d="M197.36,31.91h8.22l8.52,24.23h.09l8.44-24.23h8.22V63.92h-5.93v-24.01h-.13l-8.18,24.01h-5.02l-8.22-24.01h-.09v24.01h-5.93V31.91Z"/><path class="cls-1" d="M235,48c0-2.36,.45-4.57,1.34-6.62,.89-2.05,2.1-3.82,3.63-5.32,1.53-1.5,3.3-2.67,5.32-3.53,2.02-.85,4.17-1.28,6.45-1.28s4.43,.43,6.45,1.28c2.02,.85,3.79,2.03,5.32,3.53,1.53,1.5,2.74,3.27,3.63,5.32,.89,2.05,1.34,4.25,1.34,6.62s-.44,4.46-1.32,6.47c-.88,2-2.08,3.76-3.59,5.26-1.51,1.5-3.29,2.68-5.32,3.55-2.03,.87-4.2,1.3-6.51,1.3s-4.48-.43-6.51-1.3-3.81-2.05-5.32-3.55c-1.51-1.5-2.71-3.25-3.59-5.26-.88-2-1.32-4.16-1.32-6.47Zm5.93-.04c0,1.47,.27,2.88,.82,4.22s1.31,2.52,2.29,3.55c.98,1.02,2.13,1.83,3.44,2.42,1.31,.59,2.73,.89,4.26,.89s2.95-.3,4.26-.89c1.31-.59,2.46-1.4,3.44-2.42,.98-1.02,1.74-2.21,2.29-3.55,.55-1.34,.82-2.75,.82-4.22s-.28-2.97-.84-4.33c-.56-1.35-1.33-2.54-2.31-3.55-.98-1.01-2.13-1.81-3.44-2.4-1.31-.59-2.72-.89-4.22-.89s-2.91,.3-4.22,.89c-1.31,.59-2.46,1.39-3.44,2.4-.98,1.01-1.75,2.19-2.31,3.55-.56,1.36-.84,2.8-.84,4.33Z"/><path class="cls-1" d="M272.68,31.91h9.82c1.85,0,3.37,.17,4.59,.52,1.21,.35,2.28,.89,3.2,1.64,.46,.38,.92,.81,1.36,1.32,.45,.5,.85,1.08,1.21,1.73,.36,.65,.65,1.36,.87,2.14s.32,1.63,.32,2.55c0,.52-.05,1.11-.15,1.77-.1,.66-.27,1.34-.52,2.03-.25,.69-.56,1.37-.95,2.03-.39,.66-.87,1.27-1.45,1.82-.95,.92-1.88,1.54-2.77,1.86-.89,.32-1.75,.58-2.55,.78l8.7,11.81h-7.18l-8.48-12.24h-.09v12.24h-5.93V31.91Zm5.93,15.31h3.81c1.21,0,2.19-.18,2.94-.54,.75-.36,1.33-.79,1.75-1.3,.42-.5,.69-1.04,.82-1.6,.13-.56,.19-1.06,.19-1.49s-.08-.93-.24-1.49c-.16-.56-.45-1.1-.89-1.6-.43-.5-1.02-.92-1.75-1.25-.74-.33-1.68-.5-2.83-.5h-3.81v9.78Z"/><path class="cls-1" d="M297.64,31.91h17.22v5.54h-11.29v7.83h10.82v5.54h-10.82v7.57h11.29v5.54h-17.22V31.91Z"/></g><g><path class="cls-1" d="M86.16,78.95h-2.94v-5.11h.71v4.51h2.23v.59Z"/><path class="cls-1" d="M90.65,76.78c0,.1,0,.18,0,.24s0,.13-.01,.18h-2.75c0,.4,.11,.71,.34,.92s.55,.32,.97,.32c.11,0,.23,0,.34-.01s.23-.02,.33-.04,.21-.03,.31-.05,.19-.04,.27-.06v.56c-.19,.05-.39,.09-.63,.13s-.47,.05-.72,.05c-.34,0-.62-.05-.87-.14s-.44-.22-.6-.4-.27-.39-.34-.64-.11-.54-.11-.85c0-.28,.04-.54,.12-.78s.2-.46,.35-.65,.34-.33,.56-.44,.47-.16,.75-.16,.52,.04,.73,.13,.39,.21,.53,.37,.25,.35,.33,.57,.11,.48,.11,.76Zm-.71-.1c0-.17,0-.33-.05-.48s-.11-.27-.19-.37-.2-.19-.33-.24-.28-.09-.45-.09c-.15,0-.28,.03-.41,.09s-.23,.14-.32,.24-.16,.23-.21,.38-.09,.31-.1,.48h2.06Z"/><path class="cls-1" d="M94.25,78.95l-.02-.53c-.21,.21-.43,.36-.65,.46s-.45,.14-.69,.14c-.22,0-.42-.03-.57-.09s-.29-.14-.39-.24-.18-.22-.23-.35-.07-.28-.07-.44c0-.39,.15-.7,.44-.92s.73-.33,1.3-.33h.81v-.34c0-.23-.07-.42-.22-.56s-.38-.21-.68-.21c-.22,0-.44,.02-.65,.07s-.44,.12-.67,.21v-.61c.09-.03,.18-.06,.29-.09s.22-.06,.33-.08,.24-.04,.37-.06,.26-.02,.39-.02c.24,0,.45,.03,.64,.08s.35,.13,.48,.24,.23,.24,.3,.4,.11,.35,.11,.57v2.7h-.61Zm-.07-1.79h-.86c-.17,0-.31,.02-.44,.05s-.22,.08-.3,.14-.14,.14-.17,.22-.06,.19-.06,.29c0,.08,.01,.15,.04,.22s.06,.13,.11,.18,.12,.1,.2,.13,.19,.05,.3,.05c.16,0,.34-.05,.54-.14s.41-.25,.64-.45v-.7Z"/><path class="cls-1" d="M96.29,75.03h.62l.02,.72c.23-.28,.46-.48,.69-.61s.45-.19,.68-.19c.41,0,.71,.13,.92,.39s.31,.65,.29,1.17h-.69c0-.34-.04-.59-.15-.75s-.27-.23-.47-.23c-.09,0-.18,.02-.28,.05s-.19,.08-.29,.16-.2,.16-.31,.28-.23,.25-.35,.41v2.52h-.69v-3.92Z"/><path class="cls-1" d="M100.53,75.03h.61l.03,.63c.11-.14,.23-.25,.33-.34s.21-.16,.31-.22,.21-.09,.31-.12,.22-.03,.33-.03c.4,0,.71,.12,.92,.36s.31,.6,.31,1.08v2.56h-.68v-2.5c0-.31-.06-.53-.17-.68s-.29-.22-.51-.22c-.08,0-.16,.01-.24,.04s-.16,.07-.25,.13-.18,.14-.28,.25-.21,.23-.34,.39v2.6h-.68v-3.92Z"/><path class="cls-1" d="M112.12,78.95v-2.82c0-.12,0-.22-.01-.3s-.02-.14-.04-.19-.04-.08-.07-.1-.07-.03-.11-.03c-.05,0-.1,.02-.14,.05s-.09,.08-.14,.15-.11,.16-.17,.28-.13,.26-.22,.43v2.52h-.62v-2.74c0-.14,0-.26-.01-.35s-.02-.16-.04-.21-.04-.08-.08-.1-.07-.03-.11-.03c-.05,0-.09,.01-.13,.04s-.09,.07-.14,.14-.11,.16-.17,.28-.14,.27-.22,.45v2.52h-.62v-3.92h.52l.03,.75c.07-.15,.13-.27,.2-.38s.13-.19,.2-.25,.14-.11,.22-.14,.16-.04,.26-.04c.21,0,.37,.07,.48,.21s.16,.35,.16,.64c.06-.14,.12-.26,.18-.36s.12-.19,.19-.27,.15-.13,.23-.16,.18-.06,.29-.06c.49,0,.74,.38,.74,1.14v2.86h-.62Z"/><path class="cls-1" d="M117.14,76.96c0,.3-.04,.58-.13,.84s-.21,.47-.37,.65-.36,.32-.59,.42-.49,.15-.79,.15-.53-.04-.76-.13-.41-.22-.57-.38-.27-.38-.36-.63-.12-.54-.12-.86c0-.3,.04-.58,.13-.83s.21-.47,.37-.65,.36-.32,.59-.42,.49-.15,.79-.15,.53,.04,.76,.13,.41,.21,.57,.38,.27,.38,.36,.63,.12,.54,.12,.86Zm-.7,.03c0-.24-.03-.45-.08-.63s-.13-.33-.23-.45-.22-.21-.36-.27-.3-.09-.47-.09c-.2,0-.38,.04-.52,.12s-.26,.19-.36,.32-.16,.29-.2,.46-.06,.36-.06,.55c0,.24,.03,.45,.08,.64s.13,.33,.23,.46,.22,.21,.36,.27,.3,.09,.48,.09c.2,0,.38-.04,.52-.12s.26-.19,.36-.32,.16-.29,.2-.46,.06-.36,.06-.56Z"/><path class="cls-1" d="M118.28,75.03h.62l.02,.72c.23-.28,.46-.48,.69-.61s.45-.19,.68-.19c.41,0,.71,.13,.92,.39s.31,.65,.29,1.17h-.69c0-.34-.04-.59-.15-.75s-.27-.23-.47-.23c-.09,0-.18,.02-.28,.05s-.19,.08-.29,.16-.2,.16-.31,.28-.23,.25-.35,.41v2.52h-.69v-3.92Z"/><path class="cls-1" d="M125.83,76.78c0,.1,0,.18,0,.24s0,.13-.01,.18h-2.75c0,.4,.11,.71,.34,.92s.55,.32,.97,.32c.11,0,.23,0,.34-.01s.23-.02,.33-.04,.21-.03,.31-.05,.19-.04,.27-.06v.56c-.19,.05-.39,.09-.63,.13s-.47,.05-.72,.05c-.34,0-.62-.05-.87-.14s-.44-.22-.6-.4-.27-.39-.34-.64-.11-.54-.11-.85c0-.28,.04-.54,.12-.78s.2-.46,.35-.65,.34-.33,.56-.44,.47-.16,.75-.16,.52,.04,.73,.13,.39,.21,.53,.37,.25,.35,.33,.57,.11,.48,.11,.76Zm-.71-.1c0-.17,0-.33-.05-.48s-.11-.27-.19-.37-.2-.19-.33-.24-.28-.09-.45-.09c-.15,0-.28,.03-.41,.09s-.23,.14-.32,.24-.16,.23-.21,.38-.09,.31-.1,.48h2.06Z"/><path class="cls-1" d="M133.84,78.95l-.02-.53c-.21,.21-.43,.36-.65,.46s-.45,.14-.69,.14c-.22,0-.42-.03-.57-.09s-.29-.14-.39-.24-.18-.22-.23-.35-.07-.28-.07-.44c0-.39,.15-.7,.44-.92s.73-.33,1.3-.33h.81v-.34c0-.23-.07-.42-.22-.56s-.38-.21-.68-.21c-.22,0-.44,.02-.65,.07s-.44,.12-.67,.21v-.61c.09-.03,.18-.06,.29-.09s.22-.06,.33-.08,.24-.04,.37-.06,.26-.02,.39-.02c.24,0,.45,.03,.64,.08s.35,.13,.48,.24,.23,.24,.3,.4,.11,.35,.11,.57v2.7h-.61Zm-.07-1.79h-.86c-.17,0-.31,.02-.44,.05s-.22,.08-.3,.14-.14,.14-.17,.22-.06,.19-.06,.29c0,.08,.01,.15,.04,.22s.06,.13,.11,.18,.12,.1,.2,.13,.19,.05,.3,.05c.16,0,.34-.05,.54-.14s.41-.25,.64-.45v-.7Z"/><path class="cls-1" d="M139.07,76.92c0,.33-.04,.62-.13,.87s-.22,.47-.38,.65-.37,.31-.6,.41-.5,.14-.8,.14c-.23,0-.47-.02-.71-.07s-.48-.11-.72-.21v-5.29h.68v1.52l-.03,.73c.2-.26,.4-.45,.63-.56s.46-.16,.72-.16c.22,0,.42,.05,.59,.14s.31,.23,.43,.4,.2,.38,.26,.62,.09,.51,.09,.81Zm-.7,.03c0-.21-.02-.39-.04-.57s-.08-.32-.14-.44-.15-.22-.25-.29-.22-.1-.36-.1c-.09,0-.17,.01-.26,.04s-.18,.07-.28,.14-.2,.15-.3,.25-.22,.24-.34,.39v1.9c.13,.05,.27,.09,.41,.12s.27,.04,.39,.04c.16,0,.31-.02,.45-.07s.27-.13,.38-.25,.19-.27,.26-.46,.1-.43,.1-.71Z"/><path class="cls-1" d="M143.53,76.96c0,.3-.04,.58-.13,.84s-.21,.47-.37,.65-.36,.32-.59,.42-.49,.15-.79,.15-.53-.04-.76-.13-.41-.22-.57-.38-.27-.38-.36-.63-.12-.54-.12-.86c0-.3,.04-.58,.13-.83s.21-.47,.37-.65,.36-.32,.59-.42,.49-.15,.79-.15,.53,.04,.76,.13,.41,.21,.57,.38,.27,.38,.36,.63,.12,.54,.12,.86Zm-.7,.03c0-.24-.03-.45-.08-.63s-.13-.33-.23-.45-.22-.21-.36-.27-.3-.09-.47-.09c-.2,0-.38,.04-.52,.12s-.26,.19-.36,.32-.16,.29-.2,.46-.06,.36-.06,.55c0,.24,.03,.45,.08,.64s.13,.33,.23,.46,.22,.21,.36,.27,.3,.09,.48,.09c.2,0,.38-.04,.52-.12s.26-.19,.36-.32,.16-.29,.2-.46,.06-.36,.06-.56Z"/><path class="cls-1" d="M147.66,78.95h-.61l-.02-.63c-.12,.14-.23,.25-.33,.34s-.21,.16-.31,.22-.21,.09-.31,.12-.22,.03-.33,.03c-.4,0-.71-.12-.91-.36s-.31-.6-.31-1.07v-2.56h.68v2.51c0,.6,.23,.9,.68,.9,.08,0,.16-.01,.24-.04s.16-.07,.25-.13,.18-.14,.28-.25,.21-.24,.34-.39v-2.6h.68v3.92Z"/><path class="cls-1" d="M152.07,78.9c-.15,.04-.31,.07-.48,.08s-.33,.03-.5,.03c-.49,0-.86-.11-1.1-.33s-.36-.56-.36-1.03v-2.05h-1.1v-.57h1.1v-1.08l.68-.18v1.25h1.76v.57h-1.76v1.99c0,.28,.07,.49,.22,.63s.37,.21,.66,.21c.12,0,.26,0,.41-.03s.3-.05,.46-.09v.59Z"/><path class="cls-1" d="M160.5,78.95v-2.82c0-.12,0-.22-.01-.3s-.02-.14-.04-.19-.04-.08-.07-.1-.07-.03-.11-.03c-.05,0-.1,.02-.14,.05s-.09,.08-.14,.15-.11,.16-.17,.28-.13,.26-.22,.43v2.52h-.62v-2.74c0-.14,0-.26-.01-.35s-.02-.16-.04-.21-.04-.08-.08-.1-.07-.03-.11-.03c-.05,0-.09,.01-.13,.04s-.09,.07-.14,.14-.11,.16-.17,.28-.14,.27-.22,.45v2.52h-.62v-3.92h.52l.03,.75c.07-.15,.13-.27,.2-.38s.13-.19,.2-.25,.14-.11,.22-.14,.16-.04,.26-.04c.21,0,.37,.07,.48,.21s.16,.35,.16,.64c.06-.14,.12-.26,.18-.36s.12-.19,.19-.27,.15-.13,.23-.16,.18-.06,.29-.06c.49,0,.74,.38,.74,1.14v2.86h-.62Z"/><path class="cls-1" d="M165.42,76.78c0,.1,0,.18,0,.24s0,.13-.01,.18h-2.75c0,.4,.11,.71,.34,.92s.55,.32,.97,.32c.11,0,.23,0,.34-.01s.23-.02,.33-.04,.21-.03,.31-.05,.19-.04,.27-.06v.56c-.19,.05-.39,.09-.63,.13s-.47,.05-.72,.05c-.34,0-.62-.05-.87-.14s-.44-.22-.6-.4-.27-.39-.34-.64-.11-.54-.11-.85c0-.28,.04-.54,.12-.78s.2-.46,.35-.65,.34-.33,.56-.44,.47-.16,.75-.16,.52,.04,.73,.13,.39,.21,.53,.37,.25,.35,.33,.57,.11,.48,.11,.76Zm-.71-.1c0-.17,0-.33-.05-.48s-.11-.27-.19-.37-.2-.19-.33-.24-.28-.09-.45-.09c-.15,0-.28,.03-.41,.09s-.23,.14-.32,.24-.16,.23-.21,.38-.09,.31-.1,.48h2.06Z"/><path class="cls-1" d="M166.81,79.75c.13,0,.26,0,.39-.04s.23-.07,.33-.13,.17-.13,.23-.21,.09-.18,.09-.29-.02-.2-.06-.27-.08-.13-.13-.19-.09-.12-.13-.18-.06-.15-.06-.26c0-.05,.01-.11,.03-.17s.05-.11,.1-.16,.1-.09,.16-.12,.15-.05,.24-.05,.18,.02,.26,.06,.16,.1,.22,.17,.11,.18,.15,.29,.06,.26,.06,.41c0,.22-.04,.42-.12,.62s-.2,.38-.36,.53-.35,.28-.59,.37-.51,.14-.82,.14v-.54Z"/><path class="cls-1" d="M178.1,78.95v-2.82c0-.12,0-.22-.01-.3s-.02-.14-.04-.19-.04-.08-.07-.1-.07-.03-.11-.03c-.05,0-.1,.02-.14,.05s-.09,.08-.14,.15-.11,.16-.17,.28-.13,.26-.22,.43v2.52h-.62v-2.74c0-.14,0-.26-.01-.35s-.02-.16-.04-.21-.04-.08-.08-.1-.07-.03-.11-.03c-.05,0-.09,.01-.13,.04s-.09,.07-.14,.14-.11,.16-.17,.28-.14,.27-.22,.45v2.52h-.62v-3.92h.52l.03,.75c.07-.15,.13-.27,.2-.38s.13-.19,.2-.25,.14-.11,.22-.14,.16-.04,.26-.04c.21,0,.37,.07,.48,.21s.16,.35,.16,.64c.06-.14,.12-.26,.18-.36s.12-.19,.19-.27,.15-.13,.23-.16,.18-.06,.29-.06c.49,0,.74,.38,.74,1.14v2.86h-.62Z"/><path class="cls-1" d="M183.19,75.03l-1.34,3.51c-.14,.36-.28,.66-.43,.92s-.31,.47-.48,.63-.37,.29-.57,.37-.44,.12-.7,.12c-.07,0-.13,0-.18,0s-.11,0-.18-.01v-.62c.06,0,.12,.02,.19,.02s.14,0,.21,0c.12,0,.24-.02,.35-.05s.21-.1,.31-.18,.19-.19,.28-.32,.17-.29,.26-.47l-1.57-3.92h.77l.99,2.59,.2,.61,.23-.62,.92-2.58h.75Z"/><path class="cls-1" d="M191.6,77.88c0,.14-.02,.26-.07,.37s-.11,.21-.19,.29-.17,.16-.28,.22-.22,.11-.34,.15-.25,.07-.37,.09-.25,.03-.38,.03c-.27,0-.51-.01-.73-.04s-.44-.06-.65-.11v-.62c.23,.06,.46,.11,.68,.15s.45,.05,.68,.05c.33,0,.57-.04,.72-.13s.23-.21,.23-.38c0-.07-.01-.13-.04-.19s-.07-.11-.13-.16-.17-.1-.3-.16-.32-.12-.56-.19c-.18-.05-.34-.11-.49-.18s-.28-.15-.39-.24-.2-.2-.26-.32-.09-.27-.09-.43c0-.11,.03-.23,.08-.36s.14-.25,.26-.36,.29-.21,.5-.28,.47-.11,.78-.11c.15,0,.32,0,.51,.03s.38,.05,.59,.09v.61c-.21-.05-.42-.09-.61-.12s-.36-.04-.5-.04c-.17,0-.31,.01-.43,.04s-.21,.06-.28,.11-.12,.1-.15,.16-.05,.13-.05,.2,.01,.13,.04,.19,.08,.11,.15,.17,.18,.11,.31,.16,.31,.11,.52,.17c.23,.07,.43,.14,.59,.21s.29,.16,.39,.25,.17,.19,.21,.31,.06,.24,.06,.39Z"/><path class="cls-1" d="M196.42,78.95h-.93l-1.83-2.1v2.1h-.68v-5.52h.68v3.39l1.76-1.79h.9l-1.84,1.81,1.94,2.11Z"/><path class="cls-1" d="M198.63,75.59h-1.16v-.56h1.85v3.36h1.17v.57h-3.14v-.57h1.29v-2.79Zm.24-2.21c.08,0,.15,.01,.21,.04s.12,.07,.17,.12,.09,.11,.11,.17,.04,.13,.04,.21-.01,.14-.04,.21-.06,.12-.11,.17-.1,.09-.17,.12-.14,.04-.21,.04-.15-.01-.21-.04-.12-.07-.17-.12-.09-.11-.11-.17-.04-.13-.04-.21,.01-.15,.04-.21,.06-.12,.11-.17,.1-.09,.17-.12,.14-.04,.21-.04Z"/><path class="cls-1" d="M203.03,73.99h-1.16v-.56h1.85v4.95h1.17v.57h-3.14v-.57h1.29v-4.39Z"/><path class="cls-1" d="M207.43,73.99h-1.16v-.56h1.85v4.95h1.17v.57h-3.14v-.57h1.29v-4.39Z"/><path class="cls-1" d="M213.59,77.88c0,.14-.02,.26-.07,.37s-.11,.21-.19,.29-.17,.16-.28,.22-.22,.11-.34,.15-.25,.07-.37,.09-.25,.03-.38,.03c-.27,0-.51-.01-.73-.04s-.44-.06-.65-.11v-.62c.23,.06,.46,.11,.68,.15s.45,.05,.68,.05c.33,0,.57-.04,.72-.13s.23-.21,.23-.38c0-.07-.01-.13-.04-.19s-.07-.11-.13-.16-.17-.1-.3-.16-.32-.12-.56-.19c-.18-.05-.34-.11-.49-.18s-.28-.15-.39-.24-.2-.2-.26-.32-.09-.27-.09-.43c0-.11,.03-.23,.08-.36s.14-.25,.26-.36,.29-.21,.5-.28,.47-.11,.78-.11c.15,0,.32,0,.51,.03s.38,.05,.59,.09v.61c-.21-.05-.42-.09-.61-.12s-.36-.04-.5-.04c-.17,0-.31,.01-.43,.04s-.21,.06-.28,.11-.12,.1-.15,.16-.05,.13-.05,.2,.01,.13,.04,.19,.08,.11,.15,.17,.18,.11,.31,.16,.31,.11,.52,.17c.23,.07,.43,.14,.59,.21s.29,.16,.39,.25,.17,.19,.21,.31,.06,.24,.06,.39Z"/><path class="cls-1" d="M215.19,79.75c.13,0,.26,0,.39-.04s.23-.07,.33-.13,.17-.13,.23-.21,.09-.18,.09-.29-.02-.2-.06-.27-.08-.13-.13-.19-.09-.12-.13-.18-.06-.15-.06-.26c0-.05,.01-.11,.03-.17s.05-.11,.1-.16,.1-.09,.16-.12,.15-.05,.24-.05,.18,.02,.26,.06,.16,.1,.22,.17,.11,.18,.15,.29,.06,.26,.06,.41c0,.22-.04,.42-.12,.62s-.2,.38-.36,.53-.35,.28-.59,.37-.51,.14-.82,.14v-.54Z"/><path class="cls-1" d="M85.73,84.95v-2.82c0-.12,0-.22-.01-.3s-.02-.14-.04-.19-.04-.08-.07-.1-.07-.03-.11-.03c-.05,0-.1,.02-.14,.05s-.09,.08-.14,.15-.11,.16-.17,.28-.13,.26-.22,.43v2.52h-.62v-2.74c0-.14,0-.26-.01-.35s-.02-.16-.04-.21-.04-.08-.08-.1-.07-.03-.11-.03c-.05,0-.09,.01-.13,.04s-.09,.07-.14,.14-.11,.16-.17,.28-.14,.27-.22,.45v2.52h-.62v-3.92h.52l.03,.75c.07-.15,.13-.27,.2-.38s.13-.19,.2-.25,.14-.11,.22-.14,.16-.04,.26-.04c.21,0,.37,.07,.48,.21s.16,.35,.16,.64c.06-.14,.12-.26,.18-.36s.12-.19,.19-.27,.15-.13,.23-.16,.18-.06,.29-.06c.49,0,.74,.38,.74,1.14v2.86h-.62Z"/><path class="cls-1" d="M90.82,81.03l-1.34,3.51c-.14,.36-.28,.66-.43,.92s-.31,.47-.48,.63-.37,.29-.57,.37-.44,.12-.7,.12c-.07,0-.13,0-.18,0s-.11,0-.18-.01v-.62c.06,0,.12,.02,.19,.02s.14,0,.21,0c.12,0,.24-.02,.35-.05s.21-.1,.31-.18,.19-.19,.28-.32,.17-.29,.26-.47l-1.57-3.92h.77l.99,2.59,.2,.61,.23-.62,.92-2.58h.75Z"/><path class="cls-1" d="M99.48,82.92c0,.35-.05,.65-.15,.91s-.23,.48-.4,.65-.38,.3-.61,.39-.49,.13-.76,.13c-.12,0-.25,0-.37-.02s-.25-.04-.38-.07v1.64h-.68v-5.52h.61l.04,.66c.2-.27,.4-.46,.62-.56s.46-.16,.72-.16c.22,0,.42,.05,.59,.14s.31,.23,.43,.4,.2,.38,.26,.62,.09,.51,.09,.81Zm-.7,.03c0-.21-.02-.39-.04-.57s-.08-.32-.14-.44-.15-.22-.25-.29-.22-.1-.36-.1c-.09,0-.17,.01-.26,.04s-.18,.07-.28,.14-.2,.15-.3,.25-.22,.24-.34,.39v1.9c.12,.05,.26,.09,.39,.12s.27,.04,.41,.04c.37,0,.65-.12,.86-.37s.31-.62,.31-1.12Z"/><path class="cls-1" d="M103.05,84.95l-.02-.53c-.21,.21-.43,.36-.65,.46s-.45,.14-.69,.14c-.22,0-.42-.03-.57-.09s-.29-.14-.39-.24-.18-.22-.23-.35-.07-.28-.07-.44c0-.39,.15-.7,.44-.92s.73-.33,1.3-.33h.81v-.34c0-.23-.07-.42-.22-.56s-.38-.21-.68-.21c-.22,0-.44,.02-.65,.07s-.44,.12-.67,.21v-.61c.09-.03,.18-.06,.29-.09s.22-.06,.33-.08,.24-.04,.37-.06,.26-.02,.39-.02c.24,0,.45,.03,.64,.08s.35,.13,.48,.24,.23,.24,.3,.4,.11,.35,.11,.57v2.7h-.61Zm-.07-1.79h-.86c-.17,0-.31,.02-.44,.05s-.22,.08-.3,.14-.14,.14-.17,.22-.06,.19-.06,.29c0,.08,.01,.15,.04,.22s.06,.13,.11,.18,.12,.1,.2,.13,.19,.05,.3,.05c.16,0,.34-.05,.54-.14s.41-.25,.64-.45v-.7Z"/><path class="cls-1" d="M108.03,83.88c0,.14-.02,.26-.07,.37s-.11,.21-.19,.29-.17,.16-.28,.22-.22,.11-.34,.15-.25,.07-.37,.09-.25,.03-.38,.03c-.27,0-.51-.01-.73-.04s-.44-.06-.65-.11v-.62c.23,.06,.46,.11,.68,.15s.45,.05,.68,.05c.33,0,.57-.04,.72-.13s.23-.21,.23-.38c0-.07-.01-.13-.04-.19s-.07-.11-.13-.16-.17-.1-.3-.16-.32-.12-.56-.19c-.18-.05-.34-.11-.49-.18s-.28-.15-.39-.24-.2-.2-.26-.32-.09-.27-.09-.43c0-.11,.03-.23,.08-.36s.14-.25,.26-.36,.29-.21,.5-.28,.47-.11,.78-.11c.15,0,.32,0,.51,.03s.38,.05,.59,.09v.61c-.21-.05-.42-.09-.61-.12s-.36-.04-.5-.04c-.17,0-.31,.01-.43,.04s-.21,.06-.28,.11-.12,.1-.15,.16-.05,.13-.05,.2,.01,.13,.04,.19,.08,.11,.15,.17,.18,.11,.31,.16,.31,.11,.52,.17c.23,.07,.43,.14,.59,.21s.29,.16,.39,.25,.17,.19,.21,.31,.06,.24,.06,.39Z"/><path class="cls-1" d="M112.49,84.9c-.15,.04-.31,.07-.48,.08s-.33,.03-.5,.03c-.49,0-.86-.11-1.1-.33s-.36-.56-.36-1.03v-2.05h-1.1v-.57h1.1v-1.08l.68-.18v1.25h1.76v.57h-1.76v1.99c0,.28,.07,.49,.22,.63s.37,.21,.66,.21c.12,0,.26,0,.41-.03s.3-.05,.46-.09v.59Z"/><path class="cls-1" d="M120.64,84.95l-.02-.53c-.21,.21-.43,.36-.65,.46s-.45,.14-.69,.14c-.22,0-.42-.03-.57-.09s-.29-.14-.39-.24-.18-.22-.23-.35-.07-.28-.07-.44c0-.39,.15-.7,.44-.92s.73-.33,1.3-.33h.81v-.34c0-.23-.07-.42-.22-.56s-.38-.21-.68-.21c-.22,0-.44,.02-.65,.07s-.44,.12-.67,.21v-.61c.09-.03,.18-.06,.29-.09s.22-.06,.33-.08,.24-.04,.37-.06,.26-.02,.39-.02c.24,0,.45,.03,.64,.08s.35,.13,.48,.24,.23,.24,.3,.4,.11,.35,.11,.57v2.7h-.61Zm-.07-1.79h-.86c-.17,0-.31,.02-.44,.05s-.22,.08-.3,.14-.14,.14-.17,.22-.06,.19-.06,.29c0,.08,.01,.15,.04,.22s.06,.13,.11,.18,.12,.1,.2,.13,.19,.05,.3,.05c.16,0,.34-.05,.54-.14s.41-.25,.64-.45v-.7Z"/><path class="cls-1" d="M122.52,81.03h.61l.03,.63c.11-.14,.23-.25,.33-.34s.21-.16,.31-.22,.21-.09,.31-.12,.22-.03,.33-.03c.4,0,.71,.12,.92,.36s.31,.6,.31,1.08v2.56h-.68v-2.5c0-.31-.06-.53-.17-.68s-.29-.22-.51-.22c-.08,0-.16,.01-.24,.04s-.16,.07-.25,.13-.18,.14-.28,.25-.21,.23-.34,.39v2.6h-.68v-3.92Z"/><path class="cls-1" d="M126.72,83.07c0-.33,.05-.63,.14-.89s.22-.48,.39-.66,.37-.31,.61-.41,.5-.14,.79-.14c.12,0,.25,0,.37,.02s.24,.04,.36,.07v-1.65h.68v5.52h-.61l-.02-.74c-.19,.28-.4,.48-.62,.61s-.46,.2-.72,.2c-.22,0-.42-.05-.59-.14s-.31-.23-.43-.4-.2-.38-.26-.62-.09-.51-.09-.8Zm.7-.04c0,.47,.07,.83,.21,1.06s.34,.35,.59,.35c.17,0,.35-.08,.54-.23s.39-.38,.6-.68v-1.82c-.11-.05-.24-.09-.37-.12s-.27-.04-.4-.04c-.37,0-.66,.12-.87,.36s-.31,.61-.31,1.12Z"/><path class="cls-1" d="M138.76,84.81c-.18,.07-.36,.12-.54,.15s-.38,.05-.58,.05c-.62,0-1.1-.17-1.43-.5s-.5-.83-.5-1.47c0-.31,.05-.59,.14-.84s.23-.47,.41-.65,.38-.32,.62-.42,.51-.15,.8-.15c.2,0,.39,.01,.57,.04s.35,.08,.51,.14v.65c-.17-.09-.34-.15-.52-.19s-.36-.06-.54-.06c-.17,0-.34,.03-.49,.1s-.29,.16-.41,.29-.21,.28-.28,.46-.1,.38-.1,.61c0,.47,.12,.83,.35,1.06s.55,.35,.96,.35c.19,0,.36-.02,.54-.06s.34-.1,.5-.19v.63Z"/><path class="cls-1" d="M143.27,84.95h-.61l-.02-.63c-.12,.14-.23,.25-.33,.34s-.21,.16-.31,.22-.21,.09-.31,.12-.22,.03-.33,.03c-.4,0-.71-.12-.91-.36s-.31-.6-.31-1.07v-2.56h.68v2.51c0,.6,.23,.9,.68,.9,.08,0,.16-.01,.24-.04s.16-.07,.25-.13,.18-.14,.28-.25,.21-.24,.34-.39v-2.6h.68v3.92Z"/><path class="cls-1" d="M144.67,81.03h.62l.02,.72c.23-.28,.46-.48,.69-.61s.45-.19,.68-.19c.41,0,.71,.13,.92,.39s.31,.65,.29,1.17h-.69c0-.34-.04-.59-.15-.75s-.27-.23-.47-.23c-.09,0-.18,.02-.28,.05s-.19,.08-.29,.16-.2,.16-.31,.28-.23,.25-.35,.41v2.52h-.69v-3.92Z"/><path class="cls-1" d="M149.07,81.03h.62l.02,.72c.23-.28,.46-.48,.69-.61s.45-.19,.68-.19c.41,0,.71,.13,.92,.39s.31,.65,.29,1.17h-.69c0-.34-.04-.59-.15-.75s-.27-.23-.47-.23c-.09,0-.18,.02-.28,.05s-.19,.08-.29,.16-.2,.16-.31,.28-.23,.25-.35,.41v2.52h-.69v-3.92Z"/><path class="cls-1" d="M156.62,82.78c0,.1,0,.18,0,.24s0,.13-.01,.18h-2.75c0,.4,.11,.71,.34,.92s.55,.32,.97,.32c.11,0,.23,0,.34-.01s.23-.02,.33-.04,.21-.03,.31-.05,.19-.04,.27-.06v.56c-.19,.05-.39,.09-.63,.13s-.47,.05-.72,.05c-.34,0-.62-.05-.87-.14s-.44-.22-.6-.4-.27-.39-.34-.64-.11-.54-.11-.85c0-.28,.04-.54,.12-.78s.2-.46,.35-.65,.34-.33,.56-.44,.47-.16,.75-.16,.52,.04,.73,.13,.39,.21,.53,.37,.25,.35,.33,.57,.11,.48,.11,.76Zm-.71-.1c0-.17,0-.33-.05-.48s-.11-.27-.19-.37-.2-.19-.33-.24-.28-.09-.45-.09c-.15,0-.28,.03-.41,.09s-.23,.14-.32,.24-.16,.23-.21,.38-.09,.31-.1,.48h2.06Z"/><path class="cls-1" d="M157.71,81.03h.61l.03,.63c.11-.14,.23-.25,.33-.34s.21-.16,.31-.22,.21-.09,.31-.12,.22-.03,.33-.03c.4,0,.71,.12,.92,.36s.31,.6,.31,1.08v2.56h-.68v-2.5c0-.31-.06-.53-.17-.68s-.29-.22-.51-.22c-.08,0-.16,.01-.24,.04s-.16,.07-.25,.13-.18,.14-.28,.25-.21,.23-.34,.39v2.6h-.68v-3.92Z"/><path class="cls-1" d="M165.27,84.9c-.15,.04-.31,.07-.48,.08s-.33,.03-.5,.03c-.49,0-.86-.11-1.1-.33s-.36-.56-.36-1.03v-2.05h-1.1v-.57h1.1v-1.08l.68-.18v1.25h1.76v.57h-1.76v1.99c0,.28,.07,.49,.22,.63s.37,.21,.66,.21c.12,0,.26,0,.41-.03s.3-.05,.46-.09v.59Z"/><path class="cls-1" d="M174.25,82.92c0,.35-.05,.65-.15,.91s-.23,.48-.4,.65-.38,.3-.61,.39-.49,.13-.76,.13c-.12,0-.25,0-.37-.02s-.25-.04-.38-.07v1.64h-.68v-5.52h.61l.04,.66c.2-.27,.4-.46,.62-.56s.46-.16,.72-.16c.22,0,.42,.05,.59,.14s.31,.23,.43,.4,.2,.38,.26,.62,.09,.51,.09,.81Zm-.7,.03c0-.21-.02-.39-.04-.57s-.08-.32-.14-.44-.15-.22-.25-.29-.22-.1-.36-.1c-.09,0-.17,.01-.26,.04s-.18,.07-.28,.14-.2,.15-.3,.25-.22,.24-.34,.39v1.9c.12,.05,.26,.09,.39,.12s.27,.04,.41,.04c.37,0,.65-.12,.86-.37s.31-.62,.31-1.12Z"/><path class="cls-1" d="M175.46,81.03h.62l.02,.72c.23-.28,.46-.48,.69-.61s.45-.19,.68-.19c.41,0,.71,.13,.92,.39s.31,.65,.29,1.17h-.69c0-.34-.04-.59-.15-.75s-.27-.23-.47-.23c-.09,0-.18,.02-.28,.05s-.19,.08-.29,.16-.2,.16-.31,.28-.23,.25-.35,.41v2.52h-.69v-3.92Z"/><path class="cls-1" d="M183.11,82.96c0,.3-.04,.58-.13,.84s-.21,.47-.37,.65-.36,.32-.59,.42-.49,.15-.79,.15-.53-.04-.76-.13-.41-.22-.57-.38-.27-.38-.36-.63-.12-.54-.12-.86c0-.3,.04-.58,.13-.83s.21-.47,.37-.65,.36-.32,.59-.42,.49-.15,.79-.15,.53,.04,.76,.13,.41,.21,.57,.38,.27,.38,.36,.63,.12,.54,.12,.86Zm-.7,.03c0-.24-.03-.45-.08-.63s-.13-.33-.23-.45-.22-.21-.36-.27-.3-.09-.47-.09c-.2,0-.38,.04-.52,.12s-.26,.19-.36,.32-.16,.29-.2,.46-.06,.36-.06,.55c0,.24,.03,.45,.08,.64s.13,.33,.23,.46,.22,.21,.36,.27,.3,.09,.48,.09c.2,0,.38-.04,.52-.12s.26-.19,.36-.32,.16-.29,.2-.46,.06-.36,.06-.56Z"/><path class="cls-1" d="M186.75,81.03v3.85c0,.27-.04,.52-.12,.73s-.19,.39-.34,.54-.32,.26-.54,.33-.45,.11-.72,.11c-.19,0-.38-.02-.56-.05s-.35-.08-.5-.15v-.65c.08,.04,.17,.08,.26,.11s.19,.06,.29,.09,.2,.04,.29,.05,.2,.02,.29,.02c.3,0,.53-.09,.7-.28s.25-.46,.25-.83v-3.31h-1.92v-.56h2.61Zm-.41-1.64c.08,0,.15,.01,.21,.04s.12,.07,.17,.12,.09,.11,.11,.17,.04,.13,.04,.21-.01,.15-.04,.21-.06,.12-.11,.17-.1,.09-.17,.12-.14,.04-.21,.04-.15-.01-.21-.04-.12-.07-.17-.12-.09-.11-.11-.17-.04-.13-.04-.21,.01-.14,.04-.21,.06-.12,.11-.17,.1-.09,.17-.12,.14-.04,.21-.04Z"/><path class="cls-1" d="M191.81,82.78c0,.1,0,.18,0,.24s0,.13-.01,.18h-2.75c0,.4,.11,.71,.34,.92s.55,.32,.97,.32c.11,0,.23,0,.34-.01s.23-.02,.33-.04,.21-.03,.31-.05,.19-.04,.27-.06v.56c-.19,.05-.39,.09-.63,.13s-.47,.05-.72,.05c-.34,0-.62-.05-.87-.14s-.44-.22-.6-.4-.27-.39-.34-.64-.11-.54-.11-.85c0-.28,.04-.54,.12-.78s.2-.46,.35-.65,.34-.33,.56-.44,.47-.16,.75-.16,.52,.04,.73,.13,.39,.21,.53,.37,.25,.35,.33,.57,.11,.48,.11,.76Zm-.71-.1c0-.17,0-.33-.05-.48s-.11-.27-.19-.37-.2-.19-.33-.24-.28-.09-.45-.09c-.15,0-.28,.03-.41,.09s-.23,.14-.32,.24-.16,.23-.21,.38-.09,.31-.1,.48h2.06Z"/><path class="cls-1" d="M195.94,84.81c-.18,.07-.36,.12-.54,.15s-.38,.05-.58,.05c-.62,0-1.1-.17-1.43-.5s-.5-.83-.5-1.47c0-.31,.05-.59,.14-.84s.23-.47,.41-.65,.38-.32,.62-.42,.51-.15,.8-.15c.2,0,.39,.01,.57,.04s.35,.08,.51,.14v.65c-.17-.09-.34-.15-.52-.19s-.36-.06-.54-.06c-.17,0-.34,.03-.49,.1s-.29,.16-.41,.29-.21,.28-.28,.46-.1,.38-.1,.61c0,.47,.12,.83,.35,1.06s.55,.35,.96,.35c.19,0,.36-.02,.54-.06s.34-.1,.5-.19v.63Z"/><path class="cls-1" d="M200.45,84.9c-.15,.04-.31,.07-.48,.08s-.33,.03-.5,.03c-.49,0-.86-.11-1.1-.33s-.36-.56-.36-1.03v-2.05h-1.1v-.57h1.1v-1.08l.68-.18v1.25h1.76v.57h-1.76v1.99c0,.28,.07,.49,.22,.63s.37,.21,.66,.21c.12,0,.26,0,.41-.03s.3-.05,.46-.09v.59Z"/><path class="cls-1" d="M204.8,83.88c0,.14-.02,.26-.07,.37s-.11,.21-.19,.29-.17,.16-.28,.22-.22,.11-.34,.15-.25,.07-.37,.09-.25,.03-.38,.03c-.27,0-.51-.01-.73-.04s-.44-.06-.65-.11v-.62c.23,.06,.46,.11,.68,.15s.45,.05,.68,.05c.33,0,.57-.04,.72-.13s.23-.21,.23-.38c0-.07-.01-.13-.04-.19s-.07-.11-.13-.16-.17-.1-.3-.16-.32-.12-.56-.19c-.18-.05-.34-.11-.49-.18s-.28-.15-.39-.24-.2-.2-.26-.32-.09-.27-.09-.43c0-.11,.03-.23,.08-.36s.14-.25,.26-.36,.29-.21,.5-.28,.47-.11,.78-.11c.15,0,.32,0,.51,.03s.38,.05,.59,.09v.61c-.21-.05-.42-.09-.61-.12s-.36-.04-.5-.04c-.17,0-.31,.01-.43,.04s-.21,.06-.28,.11-.12,.1-.15,.16-.05,.13-.05,.2,.01,.13,.04,.19,.08,.11,.15,.17,.18,.11,.31,.16,.31,.11,.52,.17c.23,.07,.43,.14,.59,.21s.29,.16,.39,.25,.17,.19,.21,.31,.06,.24,.06,.39Z"/><path class="cls-1" d="M206.4,85.75c.13,0,.26,0,.39-.04s.23-.07,.33-.13,.17-.13,.23-.21,.09-.18,.09-.29-.02-.2-.06-.27-.08-.13-.13-.19-.09-.12-.13-.18-.06-.15-.06-.26c0-.05,.01-.11,.03-.17s.05-.11,.1-.16,.1-.09,.16-.12,.15-.05,.24-.05,.18,.02,.26,.06,.16,.1,.22,.17,.11,.18,.15,.29,.06,.26,.06,.41c0,.22-.04,.42-.12,.62s-.2,.38-.36,.53-.35,.28-.59,.37-.51,.14-.82,.14v-.54Z"/><path class="cls-1" d="M218.3,82.96c0,.3-.04,.58-.13,.84s-.21,.47-.37,.65-.36,.32-.59,.42-.49,.15-.79,.15-.53-.04-.76-.13-.41-.22-.57-.38-.27-.38-.36-.63-.12-.54-.12-.86c0-.3,.04-.58,.13-.83s.21-.47,.37-.65,.36-.32,.59-.42,.49-.15,.79-.15,.53,.04,.76,.13,.41,.21,.57,.38,.27,.38,.36,.63,.12,.54,.12,.86Zm-.7,.03c0-.24-.03-.45-.08-.63s-.13-.33-.23-.45-.22-.21-.36-.27-.3-.09-.47-.09c-.2,0-.38,.04-.52,.12s-.26,.19-.36,.32-.16,.29-.2,.46-.06,.36-.06,.55c0,.24,.03,.45,.08,.64s.13,.33,.23,.46,.22,.21,.36,.27,.3,.09,.48,.09c.2,0,.38-.04,.52-.12s.26-.19,.36-.32,.16-.29,.2-.46,.06-.36,.06-.56Z"/><path class="cls-1" d="M219.45,81.03h.62l.02,.72c.23-.28,.46-.48,.69-.61s.45-.19,.68-.19c.41,0,.71,.13,.92,.39s.31,.65,.29,1.17h-.69c0-.34-.04-.59-.15-.75s-.27-.23-.47-.23c-.09,0-.18,.02-.28,.05s-.19,.08-.29,.16-.2,.16-.31,.28-.23,.25-.35,.41v2.52h-.69v-3.92Z"/><path class="cls-1" d="M85.98,90.81c-.18,.07-.36,.12-.54,.15s-.38,.05-.58,.05c-.62,0-1.1-.17-1.43-.5s-.5-.83-.5-1.47c0-.31,.05-.59,.14-.84s.23-.47,.41-.65,.38-.32,.62-.42,.51-.15,.8-.15c.2,0,.39,.01,.57,.04s.35,.08,.51,.14v.65c-.17-.09-.34-.15-.52-.19s-.36-.06-.54-.06c-.17,0-.34,.03-.49,.1s-.29,.16-.41,.29-.21,.28-.28,.46-.1,.38-.1,.61c0,.47,.12,.83,.35,1.06s.55,.35,.96,.35c.19,0,.36-.02,.54-.06s.34-.1,.5-.19v.63Z"/><path class="cls-1" d="M90.75,88.96c0,.3-.04,.58-.13,.84s-.21,.47-.37,.65-.36,.32-.59,.42-.49,.15-.79,.15-.53-.04-.76-.13-.41-.22-.57-.38-.27-.38-.36-.63-.12-.54-.12-.86c0-.3,.04-.58,.13-.83s.21-.47,.37-.65,.36-.32,.59-.42,.49-.15,.79-.15,.53,.04,.76,.13,.41,.21,.57,.38,.27,.38,.36,.63,.12,.54,.12,.86Zm-.7,.03c0-.24-.03-.45-.08-.63s-.13-.33-.23-.45-.22-.21-.36-.27-.3-.09-.47-.09c-.2,0-.38,.04-.52,.12s-.26,.19-.36,.32-.16,.29-.2,.46-.06,.36-.06,.55c0,.24,.03,.45,.08,.64s.13,.33,.23,.46,.22,.21,.36,.27,.3,.09,.48,.09c.2,0,.38-.04,.52-.12s.26-.19,.36-.32,.16-.29,.2-.46,.06-.36,.06-.56Z"/><path class="cls-1" d="M91.73,87.03h.61l.03,.63c.11-.14,.23-.25,.33-.34s.21-.16,.31-.22,.21-.09,.31-.12,.22-.03,.33-.03c.4,0,.71,.12,.92,.36s.31,.6,.31,1.08v2.56h-.68v-2.5c0-.31-.06-.53-.17-.68s-.29-.22-.51-.22c-.08,0-.16,.01-.24,.04s-.16,.07-.25,.13-.18,.14-.28,.25-.21,.23-.34,.39v2.6h-.68v-3.92Z"/><path class="cls-1" d="M99.29,90.9c-.15,.04-.31,.07-.48,.08s-.33,.03-.5,.03c-.49,0-.86-.11-1.1-.33s-.36-.56-.36-1.03v-2.05h-1.1v-.57h1.1v-1.08l.68-.18v1.25h1.76v.57h-1.76v1.99c0,.28,.07,.49,.22,.63s.37,.21,.66,.21c.12,0,.26,0,.41-.03s.3-.05,.46-.09v.59Z"/><path class="cls-1" d="M103.05,90.95l-.02-.53c-.21,.21-.43,.36-.65,.46s-.45,.14-.69,.14c-.22,0-.42-.03-.57-.09s-.29-.14-.39-.24-.18-.22-.23-.35-.07-.28-.07-.44c0-.39,.15-.7,.44-.92s.73-.33,1.3-.33h.81v-.34c0-.23-.07-.42-.22-.56s-.38-.21-.68-.21c-.22,0-.44,.02-.65,.07s-.44,.12-.67,.21v-.61c.09-.03,.18-.06,.29-.09s.22-.06,.33-.08,.24-.04,.37-.06,.26-.02,.39-.02c.24,0,.45,.03,.64,.08s.35,.13,.48,.24,.23,.24,.3,.4,.11,.35,.11,.57v2.7h-.61Zm-.07-1.79h-.86c-.17,0-.31,.02-.44,.05s-.22,.08-.3,.14-.14,.14-.17,.22-.06,.19-.06,.29c0,.08,.01,.15,.04,.22s.06,.13,.11,.18,.12,.1,.2,.13,.19,.05,.3,.05c.16,0,.34-.05,.54-.14s.41-.25,.64-.45v-.7Z"/><path class="cls-1" d="M107.97,90.81c-.18,.07-.36,.12-.54,.15s-.38,.05-.58,.05c-.62,0-1.1-.17-1.43-.5s-.5-.83-.5-1.47c0-.31,.05-.59,.14-.84s.23-.47,.41-.65,.38-.32,.62-.42,.51-.15,.8-.15c.2,0,.39,.01,.57,.04s.35,.08,.51,.14v.65c-.17-.09-.34-.15-.52-.19s-.36-.06-.54-.06c-.17,0-.34,.03-.49,.1s-.29,.16-.41,.29-.21,.28-.28,.46-.1,.38-.1,.61c0,.47,.12,.83,.35,1.06s.55,.35,.96,.35c.19,0,.36-.02,.54-.06s.34-.1,.5-.19v.63Z"/><path class="cls-1" d="M112.49,90.9c-.15,.04-.31,.07-.48,.08s-.33,.03-.5,.03c-.49,0-.86-.11-1.1-.33s-.36-.56-.36-1.03v-2.05h-1.1v-.57h1.1v-1.08l.68-.18v1.25h1.76v.57h-1.76v1.99c0,.28,.07,.49,.22,.63s.37,.21,.66,.21c.12,0,.26,0,.41-.03s.3-.05,.46-.09v.59Z"/><path class="cls-1" d="M120.92,90.95v-2.82c0-.12,0-.22-.01-.3s-.02-.14-.04-.19-.04-.08-.07-.1-.07-.03-.11-.03c-.05,0-.1,.02-.14,.05s-.09,.08-.14,.15-.11,.16-.17,.28-.13,.26-.22,.43v2.52h-.62v-2.74c0-.14,0-.26-.01-.35s-.02-.16-.04-.21-.04-.08-.08-.1-.07-.03-.11-.03c-.05,0-.09,.01-.13,.04s-.09,.07-.14,.14-.11,.16-.17,.28-.14,.27-.22,.45v2.52h-.62v-3.92h.52l.03,.75c.07-.15,.13-.27,.2-.38s.13-.19,.2-.25,.14-.11,.22-.14,.16-.04,.26-.04c.21,0,.37,.07,.48,.21s.16,.35,.16,.64c.06-.14,.12-.26,.18-.36s.12-.19,.19-.27,.15-.13,.23-.16,.18-.06,.29-.06c.49,0,.74,.38,.74,1.14v2.86h-.62Z"/><path class="cls-1" d="M125.83,88.78c0,.1,0,.18,0,.24s0,.13-.01,.18h-2.75c0,.4,.11,.71,.34,.92s.55,.32,.97,.32c.11,0,.23,0,.34-.01s.23-.02,.33-.04,.21-.03,.31-.05,.19-.04,.27-.06v.56c-.19,.05-.39,.09-.63,.13s-.47,.05-.72,.05c-.34,0-.62-.05-.87-.14s-.44-.22-.6-.4-.27-.39-.34-.64-.11-.54-.11-.85c0-.28,.04-.54,.12-.78s.2-.46,.35-.65,.34-.33,.56-.44,.47-.16,.75-.16,.52,.04,.73,.13,.39,.21,.53,.37,.25,.35,.33,.57,.11,.48,.11,.76Zm-.71-.1c0-.17,0-.33-.05-.48s-.11-.27-.19-.37-.2-.19-.33-.24-.28-.09-.45-.09c-.15,0-.28,.03-.41,.09s-.23,.14-.32,.24-.16,.23-.21,.38-.09,.31-.1,.48h2.06Z"/></g><polyline class="cls-2" points="336.36 45.96 348.95 33.37 348.95 45.96 348.95 33.37 337.26 33.37"/><rect class="cls-5" x="9.3" y="20.88" width="60.59" height="75.82"/><path class="cls-1" d="M54.91,51.99c-3.82-2.14-8.91-3.32-14.28-3.33-.01,0-.03,0-.04,0h-.03c-5.41,0-10.5,1.21-14.34,3.38-3.9,2.2-6.04,5.15-6.04,8.3,.01,6.41,9.13,11.61,20.35,11.61h.06c5.41,0,10.5-1.21,14.34-3.38,3.9-2.2,6.04-5.15,6.04-8.3,0-3.15-2.16-6.09-6.06-8.28Zm-.35,.63c3.52,1.97,5.52,4.55,5.68,7.3h-5.96c-.11-2.98-1.53-5.76-4.04-7.88-1.01-.85-2.16-1.55-3.39-2.09,2.87,.53,5.51,1.44,7.71,2.67Zm-14.34,7.33h-5.92c.1-5.64,2.67-10.22,5.9-10.55l.02,10.55Zm0,.72l.02,10.55c-3.23-.31-5.82-4.89-5.94-10.54h5.92Zm.72-.01h5.92c-.1,5.64-2.67,10.22-5.9,10.55l-.02-10.55Zm0-.72l-.02-10.55c3.23,.31,5.82,4.89,5.94,10.54h-5.92Zm-7.36,.02h-5.98c.19-5.04,4.48-9.25,10.16-10.31-2.4,1.76-4.1,5.7-4.18,10.31Zm0,.72c.09,4.61,1.8,8.55,4.21,10.3-5.69-1.05-9.99-5.23-10.2-10.29h5.98Zm14-.03h5.98c-.1,2.76-1.42,5.36-3.76,7.34-1.78,1.51-3.99,2.53-6.4,2.97,2.41-1.76,4.1-5.7,4.18-10.32Zm0-.72c-.09-4.61-1.8-8.55-4.22-10.3,2.41,.44,4.63,1.45,6.42,2.95,2.34,1.97,3.67,4.57,3.79,7.34h-5.98Zm-21-7.26c2.21-1.25,4.85-2.16,7.74-2.71-4.31,1.89-7.29,5.65-7.44,10.01h-5.96c.16-2.74,2.15-5.32,5.66-7.31Zm-5.65,8.03h5.96c.16,4.34,3.16,8.1,7.46,9.97-7.6-1.41-13.14-5.32-13.42-9.97Zm33.66,7.25c-2.2,1.24-4.83,2.16-7.7,2.7,1.23-.54,2.38-1.25,3.39-2.11,2.5-2.12,3.91-4.91,4.01-7.9h5.96c-.16,2.74-2.15,5.32-5.66,7.31Z"/></g></svg>