<?xml version="1.0" encoding="UTF-8"?><svg id="Layer_2" xmlns="http://www.w3.org/2000/svg" viewBox="0 0 87.67 87.67"><g id="Layer_3"><path d="M43.84,0C19.66,0,0,19.66,0,43.84s19.66,43.84,43.84,43.84,43.84-19.66,43.84-43.84S68.01,0,43.84,0Zm-2.74,5.58V22.63c-6.5-.41-12.29-1.68-16.8-3,1.58-5.3,3.21-9.14,3.98-10.85,3.97-1.77,8.29-2.88,12.82-3.2Zm24.71,25.39c.52,3.04,.94,6.45,1.14,10.13h-20.37v-12.84c6.3-.11,12.37-1.06,18.12-2.82,.41,1.75,.79,3.6,1.12,5.53Zm-24.71,30.64c-2.91,.17-5.87,.51-8.84,1.02-3.53,.61-6.71,1.39-9.47,2.2-1.67-6.34-2.34-12.53-2.4-18.25h20.71v15.02Zm5.48-15.02h20.49c-.06,5.58-.7,11.6-2.28,17.77-5.77-1.78-11.88-2.74-18.21-2.86v-14.92Zm0-23.82V5.58c4.43,.31,8.65,1.38,12.54,3.08,.77,1.69,2.52,5.77,4.19,11.47-5.72,1.78-11.39,2.53-16.73,2.62Zm-14.32,4.38c2.98,.51,5.93,.85,8.84,1.02v12.94H20.5c.2-3.68,.62-7.09,1.14-10.13,.36-2.11,.78-4.12,1.23-6.01,2.73,.8,5.89,1.58,9.39,2.18Zm-15.98,2.72c-.58,3.36-1.05,7.15-1.26,11.24H5.58c.52-7.37,3.14-14.18,7.26-19.82,.92,.43,2.57,1.14,4.81,1.96-.5,2.07-.97,4.28-1.37,6.62Zm-1.37,16.72c.07,6.24,.81,13.01,2.67,19.96-1.44,.53-2.64,1.02-3.54,1.41-4.8-5.93-7.88-13.31-8.45-21.37H14.9Zm4.29,25.23c.23,.67,.48,1.33,.74,2-.64-.51-1.26-1.03-1.86-1.58,.35-.14,.72-.28,1.12-.42Zm5.21-1.71c4.5-1.31,10.25-2.56,16.69-2.96v14.96c-4.56-.32-8.9-1.45-12.89-3.23-1.52-2.92-2.78-5.85-3.8-8.77Zm22.17-3.09c5.31,.09,10.95,.83,16.64,2.59-1.07,3.12-2.41,6.27-4.04,9.39-3.91,1.71-8.15,2.79-12.6,3.11v-15.09Zm21.79,4.48c.46,.2,.92,.4,1.38,.61-.75,.69-1.53,1.35-2.33,1.98,.33-.86,.65-1.73,.95-2.59Zm1.6-5.27c1.8-6.84,2.51-13.49,2.58-19.64h9.55c-.57,8.04-3.63,15.4-8.41,21.32-1.22-.6-2.46-1.16-3.72-1.68Zm2.47-25.12c-.21-4.09-.68-7.87-1.26-11.24-.38-2.21-.82-4.31-1.29-6.29,1.69-.69,3.34-1.46,4.95-2.3,4.12,5.64,6.74,12.45,7.26,19.82h-9.66Zm-1.24-24.12c-.91,.45-1.82,.87-2.73,1.25-.55-1.87-1.11-3.58-1.65-5.09,1.55,1.17,3.02,2.45,4.38,3.83Zm-50.65-3.6c-.48,1.36-.98,2.88-1.47,4.53-.99-.37-1.84-.71-2.53-1,1.25-1.27,2.59-2.45,4-3.53Z"/></g></svg>