<?xml version="1.0" encoding="UTF-8"?><svg id="Layer_2" xmlns="http://www.w3.org/2000/svg" viewBox="0 0 74.72 9.09"><defs><style>.cls-1{fill:#fff;}</style></defs><g id="OBJECTS"><g><polygon class="cls-1" points="3.56 9.09 1.03 9.09 0 7.64 0 4.06 3.56 9.09"/><polygon class="cls-1" points="6.5 9.09 9.03 9.09 2.6 0 .07 0 6.5 9.09"/><polygon class="cls-1" points="11.97 9.09 14.51 9.09 8.07 0 5.54 0 11.97 9.09"/><polygon class="cls-1" points="17.45 9.09 19.98 9.09 13.55 0 11.02 0 17.45 9.09"/><polygon class="cls-1" points="22.92 9.09 25.45 9.09 19.02 0 16.49 0 22.92 9.09"/><polygon class="cls-1" points="28.4 9.09 30.93 9.09 24.5 0 21.96 0 28.4 9.09"/><polygon class="cls-1" points="33.87 9.09 36.4 9.09 29.97 0 27.44 0 33.87 9.09"/><polygon class="cls-1" points="39.34 9.09 41.88 9.09 35.44 0 32.91 0 39.34 9.09"/><polygon class="cls-1" points="44.82 9.09 47.35 9.09 40.92 0 38.39 0 44.82 9.09"/><polygon class="cls-1" points="50.29 9.09 52.82 9.09 46.39 0 43.86 0 50.29 9.09"/><polygon class="cls-1" points="55.77 9.09 58.3 9.09 51.87 0 49.33 0 55.77 9.09"/><polygon class="cls-1" points="61.24 9.09 63.77 9.09 57.34 0 54.81 0 61.24 9.09"/><polygon class="cls-1" points="66.71 9.09 69.25 9.09 62.81 0 60.28 0 66.71 9.09"/><polygon class="cls-1" points="72.19 9.09 74.72 9.09 68.29 0 65.76 0 72.19 9.09"/><polygon class="cls-1" points="74.72 1.35 74.72 4.93 71.23 0 73.76 0 74.72 1.35"/></g></g></svg>