<svg width="81" height="41" viewBox="0 0 81 41" fill="none" xmlns="http://www.w3.org/2000/svg">
<path d="M4.06445 0.0939941H0.0644531V40.7702H4.06445V0.0939941Z" fill="black"/>
<path d="M12.0645 0.0939941H8.06445V40.7702H12.0645V0.0939941Z" fill="black"/>
<path d="M18.0645 0.0939941H14.0645V40.7702H18.0645V0.0939941Z" fill="black"/>
<path d="M24.0645 0.0939941H20.0645V40.7702H24.0645V0.0939941Z" fill="black"/>
<path d="M30.0645 0.0939941H28.0645V40.7702H30.0645V0.0939941Z" fill="black"/>
<path d="M40.0645 0.0939941H38.0645V40.7702H40.0645V0.0939941Z" fill="black"/>
<path d="M46.0645 0.0939941H42.0645V40.7702H46.0645V0.0939941Z" fill="black"/>
<path d="M52.0645 0.0939941H48.0645V40.7702H52.0645V0.0939941Z" fill="black"/>
<path d="M58.0645 0.0939941H56.0645V40.7702H58.0645V0.0939941Z" fill="black"/>
<path d="M66.0645 0.0939941H60.0645V40.7702H66.0645V0.0939941Z" fill="black"/>
<path d="M72.0645 0.0939941H70.0645V40.7702H72.0645V0.0939941Z" fill="black"/>
<path d="M80.0645 0.0939941H74.0645V40.7702H80.0645V0.0939941Z" fill="black"/>
</svg>
